<svg width="21" height="19" viewBox="0 0 21 19" fill="none" xmlns="http://www.w3.org/2000/svg">
<path d="M18.9294 10.4712H2.93774V3.36385C2.93697 3.0962 2.99219 2.83105 3.10023 2.58377C3.20826 2.33648 3.36695 2.11197 3.56712 1.92323L3.58378 1.90744C3.89747 1.61045 4.30023 1.41253 4.73701 1.34071C5.1738 1.26889 5.62333 1.32669 6.02417 1.50619C5.64561 2.10297 5.48826 2.80258 5.57713 3.49387C5.666 4.18515 5.99599 4.82845 6.51467 5.32153L6.97072 5.75393L6.13128 6.54988L7.07354 7.44327L7.91298 6.64737L12.5643 2.23738L13.4037 1.44148L12.4614 0.548043L11.6219 1.34395L11.1659 0.911544C10.6198 0.395287 9.90008 0.0770469 9.132 0.0122811C8.36392 -0.0524847 7.59622 0.14033 6.96268 0.557125C6.29462 0.157105 5.50293 -0.0155861 4.71767 0.0674197C3.9324 0.150426 3.20026 0.484192 2.64152 1.01389L2.62486 1.02968C2.30055 1.3355 2.04343 1.69926 1.86839 2.09992C1.69334 2.50058 1.60386 2.93018 1.6051 3.36385V10.4712H0.272461V11.7347H1.6051V12.9469C1.60507 13.0488 1.6224 13.15 1.65641 13.2466L2.89609 16.7726C2.96225 16.9614 3.08946 17.1256 3.25966 17.2419C3.42985 17.3582 3.63438 17.4208 3.84418 17.4206H4.3814L3.89557 19H5.28372L5.7696 17.4206H14.4359L14.9357 19H16.3266L15.8269 17.4206H16.6902C16.9 17.4208 17.1046 17.3583 17.2748 17.242C17.445 17.1256 17.5722 16.9614 17.6384 16.7726L18.878 13.2466C18.912 13.15 18.9294 13.0488 18.9294 12.9469V11.7347H20.262V10.4712H18.9294ZM7.45705 1.80498C7.82419 1.45763 8.32166 1.26256 8.84031 1.26256C9.35896 1.26256 9.85643 1.45763 10.2236 1.80498L10.6795 2.23738L7.9131 4.86034L7.45705 4.42802C7.09073 4.07991 6.885 3.60824 6.885 3.1165C6.885 2.62475 7.09073 2.15309 7.45705 1.80498ZM17.5968 12.8956L16.4502 16.1571H4.08431L2.93774 12.8956V11.7347H17.5968V12.8956Z" fill="black"/>
</svg>
