<svg width="20" height="18" viewBox="0 0 20 18" fill="none" xmlns="http://www.w3.org/2000/svg">
<g clip-path="url(#clip0_0_14011)">
<path d="M6.22 7.61629C6.28652 7.676 6.33929 7.74694 6.3753 7.82504C6.41131 7.90314 6.42985 7.98687 6.42985 8.07143C6.42985 8.15599 6.41131 8.23971 6.3753 8.31781C6.33929 8.39591 6.28652 8.46686 6.22 8.52657L5.29571 9.35714H14.7043L13.78 8.52657C13.6459 8.40586 13.5705 8.24214 13.5705 8.07143C13.5705 7.90072 13.6459 7.737 13.78 7.61629C13.9141 7.49557 14.096 7.42776 14.2857 7.42776C14.4754 7.42776 14.6573 7.49557 14.7914 7.61629L16.9343 9.54486C17.0008 9.60457 17.0536 9.67551 17.0896 9.75361C17.1256 9.83172 17.1441 9.91544 17.1441 10C17.1441 10.0846 17.1256 10.1683 17.0896 10.2464C17.0536 10.3245 17.0008 10.3954 16.9343 10.4551L14.7914 12.3837C14.6573 12.5044 14.4754 12.5722 14.2857 12.5722C14.096 12.5722 13.9141 12.5044 13.78 12.3837C13.6459 12.263 13.5705 12.0993 13.5705 11.9286C13.5705 11.7579 13.6459 11.5941 13.78 11.4734L14.7043 10.6429H5.29571L6.22 11.4734C6.35412 11.5941 6.42947 11.7579 6.42947 11.9286C6.42947 12.0993 6.35412 12.263 6.22 12.3837C6.08588 12.5044 5.90397 12.5722 5.71429 12.5722C5.52461 12.5722 5.3427 12.5044 5.20857 12.3837L3.06571 10.4551C2.9992 10.3954 2.94642 10.3245 2.91041 10.2464C2.8744 10.1683 2.85587 10.0846 2.85587 10C2.85587 9.91544 2.8744 9.83172 2.91041 9.75361C2.94642 9.67551 2.9992 9.60457 3.06571 9.54486L5.20857 7.61629C5.27492 7.55642 5.35374 7.50892 5.44052 7.47651C5.5273 7.4441 5.62033 7.42742 5.71429 7.42742C5.80824 7.42742 5.90127 7.4441 5.98805 7.47651C6.07483 7.50892 6.15365 7.55642 6.22 7.61629ZM20 4.85714C20 3.83417 19.5485 2.85309 18.7447 2.12973C17.941 1.40638 16.8509 1 15.7143 1H4.28571C3.14907 1 2.05898 1.40638 1.25526 2.12973C0.451529 2.85309 0 3.83417 0 4.85714V15.1429C0 16.1658 0.451529 17.1469 1.25526 17.8703C2.05898 18.5936 3.14907 19 4.28571 19H15.7143C16.8509 19 17.941 18.5936 18.7447 17.8703C19.5485 17.1469 20 16.1658 20 15.1429V4.85714ZM14.2857 2.28571V6.14286C14.7971 6.14286 15.3086 6.30614 15.7143 6.634V2.28571C16.472 2.28571 17.1988 2.55663 17.7346 3.03887C18.2704 3.5211 18.5714 4.17516 18.5714 4.85714V15.1429C18.5714 15.8248 18.2704 16.4789 17.7346 16.9611C17.1988 17.4434 16.472 17.7143 15.7143 17.7143V13.366C15.3218 13.6828 14.8129 13.8577 14.2857 13.8571V17.7143H5.71429V13.8571C5.20286 13.8571 4.69143 13.6939 4.28571 13.366V17.7143C3.52795 17.7143 2.80123 17.4434 2.26541 16.9611C1.72959 16.4789 1.42857 15.8248 1.42857 15.1429V4.85714C1.42857 4.17516 1.72959 3.5211 2.26541 3.03887C2.80123 2.55663 3.52795 2.28571 4.28571 2.28571V6.634C4.67822 6.3172 5.18706 6.14226 5.71429 6.14286V2.28571H14.2857Z" fill="black"/>
</g>
<defs>
<clipPath id="clip0_0_14011">
<rect width="20" height="18" fill="white"/>
</clipPath>
</defs>
</svg>
