<svg width="11" height="18" viewBox="0 0 11 18" fill="none" xmlns="http://www.w3.org/2000/svg">
<path d="M5.13888 7.81222C5.17278 7.74438 5.22526 7.68725 5.29038 7.64731C5.3555 7.60736 5.43066 7.58619 5.50734 7.58619C5.58403 7.58619 5.65919 7.60736 5.72431 7.64731C5.78943 7.68725 5.84191 7.74438 5.87581 7.81222L7.10196 10.2621C7.13139 10.3211 7.17493 10.3721 7.22882 10.4108C7.2827 10.4495 7.34533 10.4746 7.41128 10.4841L10.1532 10.877C10.229 10.888 10.3001 10.9196 10.3587 10.9683C10.4172 11.017 10.4608 11.0809 10.4845 11.1527C10.5081 11.2245 10.511 11.3014 10.4926 11.3748C10.4743 11.4481 10.4356 11.5149 10.3808 11.5677L8.39672 13.4748C8.34901 13.5206 8.31331 13.5772 8.2927 13.6397C8.27209 13.7021 8.26719 13.7686 8.27842 13.8333L8.7467 16.5263C8.75959 16.6007 8.75112 16.6772 8.72225 16.7472C8.69338 16.8171 8.64525 16.8777 8.58331 16.9221C8.52136 16.9665 8.44807 16.993 8.37169 16.9985C8.29532 17.004 8.2189 16.9883 8.15108 16.9532L5.69876 15.6821C5.6398 15.6515 5.57417 15.6355 5.50755 15.6355C5.44093 15.6355 5.3753 15.6515 5.31634 15.6821L2.86402 16.9532C2.79617 16.9885 2.71966 17.0044 2.64315 16.999C2.56664 16.9936 2.49318 16.9672 2.43111 16.9227C2.36903 16.8783 2.32081 16.8176 2.29191 16.7475C2.26301 16.6775 2.25458 16.6008 2.26758 16.5263L2.73586 13.8333C2.74714 13.7686 2.7423 13.7022 2.72177 13.6397C2.70123 13.5773 2.66561 13.5207 2.61797 13.4748L0.633938 11.5677C0.579016 11.515 0.54016 11.4481 0.521765 11.3747C0.50337 11.3013 0.50617 11.2243 0.529849 11.1524C0.553528 11.0805 0.59714 11.0166 0.655752 10.9678C0.714364 10.9191 0.785636 10.8875 0.861506 10.8766L3.60341 10.4837C3.66932 10.4743 3.73192 10.4492 3.7858 10.4106C3.83969 10.372 3.88325 10.321 3.91273 10.2621L5.13888 7.81222V7.81222ZM10.4366 1H0.578073V5.05079L5.50734 7.07619L10.4366 5.05079V1Z" stroke="#505050" stroke-linecap="round" stroke-linejoin="round"/>
</svg>
