<svg width="20" height="17" viewBox="0 0 20 17" fill="none" xmlns="http://www.w3.org/2000/svg">
<path d="M6.22 6.61629C6.28652 6.676 6.33929 6.74694 6.3753 6.82504C6.41131 6.90314 6.42985 6.98687 6.42985 7.07143C6.42985 7.15599 6.41131 7.23971 6.3753 7.31781C6.33929 7.39591 6.28652 7.46686 6.22 7.52657L5.29571 8.35714H14.7043L13.78 7.52657C13.6459 7.40586 13.5705 7.24214 13.5705 7.07143C13.5705 6.90072 13.6459 6.737 13.78 6.61629C13.9141 6.49557 14.096 6.42776 14.2857 6.42776C14.4754 6.42776 14.6573 6.49557 14.7914 6.61629L16.9343 8.54486C17.0008 8.60457 17.0536 8.67551 17.0896 8.75361C17.1256 8.83172 17.1441 8.91544 17.1441 9C17.1441 9.08456 17.1256 9.16828 17.0896 9.24639C17.0536 9.32449 17.0008 9.39543 16.9343 9.45514L14.7914 11.3837C14.6573 11.5044 14.4754 11.5722 14.2857 11.5722C14.096 11.5722 13.9141 11.5044 13.78 11.3837C13.6459 11.263 13.5705 11.0993 13.5705 10.9286C13.5705 10.7579 13.6459 10.5941 13.78 10.4734L14.7043 9.64286H5.29571L6.22 10.4734C6.35412 10.5941 6.42947 10.7579 6.42947 10.9286C6.42947 11.0993 6.35412 11.263 6.22 11.3837C6.08588 11.5044 5.90397 11.5722 5.71429 11.5722C5.52461 11.5722 5.3427 11.5044 5.20857 11.3837L3.06571 9.45514C2.9992 9.39543 2.94642 9.32449 2.91041 9.24639C2.8744 9.16828 2.85587 9.08456 2.85587 9C2.85587 8.91544 2.8744 8.83172 2.91041 8.75361C2.94642 8.67551 2.9992 8.60457 3.06571 8.54486L5.20857 6.61629C5.27492 6.55642 5.35374 6.50892 5.44052 6.47651C5.5273 6.4441 5.62033 6.42742 5.71429 6.42742C5.80824 6.42742 5.90127 6.4441 5.98805 6.47651C6.07483 6.50892 6.15365 6.55642 6.22 6.61629ZM20 3.85714C20 2.83417 19.5485 1.85309 18.7447 1.12973C17.941 0.406377 16.8509 0 15.7143 0H4.28571C3.14907 0 2.05898 0.406377 1.25526 1.12973C0.451529 1.85309 0 2.83417 0 3.85714V14.1429C0 15.1658 0.451529 16.1469 1.25526 16.8703C2.05898 17.5936 3.14907 18 4.28571 18H15.7143C16.8509 18 17.941 17.5936 18.7447 16.8703C19.5485 16.1469 20 15.1658 20 14.1429V3.85714ZM14.2857 1.28571V5.14286C14.7971 5.14286 15.3086 5.30614 15.7143 5.634V1.28571C16.472 1.28571 17.1988 1.55663 17.7346 2.03887C18.2704 2.5211 18.5714 3.17516 18.5714 3.85714V14.1429C18.5714 14.8248 18.2704 15.4789 17.7346 15.9611C17.1988 16.4434 16.472 16.7143 15.7143 16.7143V12.366C15.3218 12.6828 14.8129 12.8577 14.2857 12.8571V16.7143H5.71429V12.8571C5.20286 12.8571 4.69143 12.6939 4.28571 12.366V16.7143C3.52795 16.7143 2.80123 16.4434 2.26541 15.9611C1.72959 15.4789 1.42857 14.8248 1.42857 14.1429V3.85714C1.42857 3.17516 1.72959 2.5211 2.26541 2.03887C2.80123 1.55663 3.52795 1.28571 4.28571 1.28571V5.634C4.67822 5.3172 5.18706 5.14226 5.71429 5.14286V1.28571H14.2857Z" fill="black"/>
</svg>
