<svg width="21" height="21" viewBox="0 0 21 21" fill="none" xmlns="http://www.w3.org/2000/svg">
<path d="M18.6206 0.833277H2.4894C2.28148 0.823538 2.07367 0.854894 1.87789 0.92557C1.6821 0.996245 1.50218 1.10484 1.34841 1.24513C1.19465 1.38542 1.07006 1.55468 0.981788 1.74318C0.893519 1.93169 0.843289 2.13575 0.833984 2.34369V18.5112C0.846164 18.9463 1.02449 19.3604 1.33234 19.6682C1.64018 19.9761 2.05421 20.1544 2.4894 20.1666H18.6206C19.0437 20.1478 19.4426 19.9639 19.7317 19.6544C20.0209 19.345 20.1772 18.9346 20.1673 18.5112V2.34369C20.1708 2.1413 20.1329 1.94034 20.0559 1.75312C19.9789 1.56591 19.8645 1.3964 19.7196 1.25496C19.5749 1.11354 19.4027 1.00319 19.2137 0.930681C19.0247 0.858169 18.8229 0.825024 18.6206 0.833277ZM6.87565 16.9525H4.06023V8.33706H6.87565V16.9525ZM5.5344 7.03203C5.33794 7.03888 5.14218 7.00502 4.95943 6.93259C4.77667 6.86017 4.61086 6.75073 4.47243 6.61115C4.33399 6.47158 4.22591 6.30489 4.15498 6.12155C4.08404 5.93821 4.05179 5.74218 4.06023 5.54578C4.05155 5.34725 4.08445 5.14911 4.15684 4.96405C4.22923 4.77898 4.3395 4.61109 4.48058 4.47116C4.62166 4.33121 4.79043 4.2223 4.97607 4.15142C5.16171 4.08053 5.36012 4.04923 5.55857 4.05953C5.75503 4.05269 5.95079 4.08653 6.13354 4.15896C6.3163 4.23139 6.48211 4.34083 6.62053 4.4804C6.75897 4.61998 6.86706 4.78667 6.93799 4.97001C7.00893 5.15335 7.04118 5.34937 7.03273 5.54578C7.04142 5.74431 7.00852 5.94245 6.93613 6.1275C6.86374 6.31257 6.75346 6.48046 6.61239 6.6204C6.47131 6.76035 6.30254 6.86925 6.1169 6.94013C5.93125 7.01103 5.73285 7.04232 5.5344 7.03203ZM16.9531 16.9525H14.1257V12.24C14.1257 11.1162 13.7269 10.3429 12.724 10.3429C12.4125 10.3456 12.1093 10.4445 11.8563 10.6262C11.6031 10.808 11.4125 11.0635 11.3102 11.3579C11.2317 11.5785 11.1988 11.8128 11.2136 12.0466V16.9525H8.4344V8.33706H11.2136V9.5454C11.4607 9.09143 11.8284 8.71467 12.2762 8.45657C12.724 8.19859 13.2344 8.06939 13.7511 8.08328C15.5756 8.08328 16.9531 9.29165 16.9531 11.8654V16.9525Z" fill="white"/>
</svg>
