<svg width="15" height="19" viewBox="0 0 15 19" fill="none" xmlns="http://www.w3.org/2000/svg">
<path fill-rule="evenodd" clip-rule="evenodd" d="M7.5 0.3125C3.51591 0.3125 0.28125 3.54716 0.28125 7.53125C0.28125 9.35431 1.36669 11.5219 2.70872 13.45C4.63744 16.222 7.0485 18.5077 7.0485 18.5077C7.30181 18.7472 7.69819 18.7472 7.9515 18.5077C7.9515 18.5077 10.3626 16.222 12.2913 13.45C13.6333 11.5219 14.7188 9.35431 14.7188 7.53125C14.7188 3.54716 11.4841 0.3125 7.5 0.3125ZM7.5 3.92188C5.50763 3.92188 3.89062 5.53888 3.89062 7.53125C3.89062 9.52363 5.50763 11.1406 7.5 11.1406C9.49238 11.1406 11.1094 9.52363 11.1094 7.53125C11.1094 5.53888 9.49238 3.92188 7.5 3.92188ZM7.5 5.23438C8.76787 5.23438 9.79688 6.26337 9.79688 7.53125C9.79688 8.79912 8.76787 9.82812 7.5 9.82812C6.23212 9.82812 5.20312 8.79912 5.20312 7.53125C5.20312 6.26337 6.23212 5.23438 7.5 5.23438Z" fill="white"/>
</svg>
