<svg width="15" height="15" viewBox="0 0 15 15" fill="none" xmlns="http://www.w3.org/2000/svg">
<path d="M5.89052 7.55963C6.27892 8.01526 6.6286 8.34864 6.62532 8.34565C6.62208 8.34296 6.9286 8.71617 7.35473 9.13686C7.69734 9.47489 8.07817 9.80852 8.50016 10.1254C8.97881 10.4851 9.72722 10.5317 10.1335 10.2836C10.5401 10.0359 11.3218 9.53339 11.9067 9.66156C12.3981 9.76915 13.0505 10.1297 13.8355 11.0561C15.6862 13.2413 14.0282 13.9235 12.8792 14.8047C11.7291 15.6854 7.93524 13.5039 4.46069 9.94995C0.985832 6.39621 -0.322802 2.71972 0.639189 1.63744C1.60143 0.555146 2.40345 -1.04865 4.44798 0.95576C5.31479 1.80577 5.62675 2.48286 5.69831 2.98075C5.78367 3.57353 5.22588 4.31675 4.94911 4.7041C4.67238 5.09171 4.66451 5.84141 4.98843 6.34503C5.27363 6.7893 5.57826 7.19345 5.89052 7.55963Z" fill="white"/>
</svg>
