<svg width="17" height="13" viewBox="0 0 17 13" fill="none" xmlns="http://www.w3.org/2000/svg">
<path fill-rule="evenodd" clip-rule="evenodd" d="M0.799318 2.03912C0.583984 2.46266 0.583984 3.01683 0.583984 4.12516V8.87516C0.583984 9.9835 0.583984 10.5377 0.799318 10.9612C0.989235 11.3335 1.29214 11.6361 1.66461 11.8257C2.08815 12.0418 2.64232 12.0418 3.75065 12.0418H13.2507C14.359 12.0418 14.9132 12.0418 15.3367 11.8257C15.7089 11.636 16.0115 11.3334 16.2012 10.9612C16.4173 10.5377 16.4173 9.9835 16.4173 8.87516V4.12516C16.4173 3.01683 16.4173 2.46266 16.2012 2.03912C16.0116 1.66665 15.709 1.36375 15.3367 1.17383C14.9132 0.958496 14.359 0.958496 13.2507 0.958496H3.75065C2.64232 0.958496 2.08815 0.958496 1.66461 1.17383C1.29201 1.36361 0.9891 1.66653 0.799318 2.03912ZM2.67953 2.54183H14.3218C14.4068 2.54173 14.4895 2.56898 14.5578 2.61957C14.6261 2.67015 14.6764 2.74138 14.701 2.82271C14.7257 2.90404 14.7236 2.99115 14.6949 3.07117C14.6662 3.15118 14.6126 3.21984 14.5419 3.267L8.94082 7.01316C8.81056 7.1003 8.65737 7.14681 8.50065 7.14681C8.34393 7.14681 8.19074 7.1003 8.06048 7.01316L2.45944 3.267C2.38873 3.21984 2.33507 3.15118 2.3064 3.07117C2.27773 2.99115 2.27558 2.90404 2.30027 2.82271C2.32495 2.74138 2.37516 2.67015 2.44346 2.61957C2.51176 2.56898 2.59453 2.54173 2.67953 2.54183Z" fill="white"/>
</svg>
