<svg width="22" height="18" viewBox="0 0 22 18" fill="none" xmlns="http://www.w3.org/2000/svg">
<path fill-rule="evenodd" clip-rule="evenodd" d="M6.919 17.8C15.2207 17.8 19.7615 11.0279 19.7615 5.15588C19.7615 4.9631 19.7615 4.77178 19.7483 4.58117C20.6316 3.95303 21.3939 3.17312 22 2.28073C21.1772 2.64029 20.3027 2.87609 19.4084 2.98005C20.35 2.42447 21.0551 1.55163 21.3928 0.521698C20.5062 1.03937 19.5371 1.40472 18.5262 1.60075C16.8168 -0.188366 13.9579 -0.275049 12.1396 1.40793C10.9681 2.49309 10.4698 4.11105 10.8339 5.65432C7.205 5.47454 3.8236 3.78726 1.5312 1.01154C0.3333 3.04215 0.946 5.63891 2.9293 6.94284C2.211 6.92226 1.5081 6.73186 0.88 6.38747V6.44387C0.8811 8.55897 2.3958 10.3802 4.5012 10.7993C3.8368 10.978 3.1394 11.0039 2.464 10.875C3.0547 12.6858 4.7498 13.926 6.6803 13.9618C5.082 15.1986 3.1075 15.8701 1.0747 15.868C0.7161 15.8669 0.3575 15.8463 0 15.8041C2.0647 17.108 4.466 17.8 6.919 17.7967" fill="white"/>
</svg>
