<svg width="40" height="37" viewBox="0 0 40 37" fill="none" xmlns="http://www.w3.org/2000/svg">
<path d="M1.63867 35.793H15.8417M15.8417 35.793H16.0737M15.8417 35.793C15.8804 35.7934 15.9191 35.7934 15.9577 35.7934C15.9964 35.7934 16.035 35.7934 16.0737 35.793M15.8417 35.793C7.98692 35.7305 1.63867 29.3395 1.63867 21.466V13.122C1.63867 12.0786 2.4836 11.2332 3.52643 11.2332H28.3881C29.4309 11.2332 30.2768 12.0786 30.2768 13.122V13.2799M16.0737 35.793H30.2768M16.0737 35.793C23.9285 35.7305 30.2768 29.3395 30.2768 21.466M30.2768 13.2799H33.3451C36.1695 13.2799 38.4591 15.5707 38.4591 18.3965C38.4591 21.2223 36.1695 23.5131 33.3451 23.5131H30.2768V21.466M30.2768 13.2799V21.466M24.14 1L22.0945 5.09329M18.0033 1L15.9577 5.09329M11.8666 1L9.82099 5.09329" stroke="#675DFE" stroke-width="2" stroke-linecap="round" stroke-linejoin="round"/>
</svg>
