<svg width="25" height="29" viewBox="0 0 25 29" fill="none" xmlns="http://www.w3.org/2000/svg">
<path fill-rule="evenodd" clip-rule="evenodd" d="M3.45833 11.2712C3.45833 6.87137 7.34616 2.87533 12.5 2.87533C17.6539 2.87533 21.5417 6.87137 21.5417 11.2712C21.5417 14.0417 19.8466 17.1361 17.6158 20.0042C15.8528 22.271 13.8915 24.2303 12.5 25.6014C11.1085 24.2303 9.14718 22.271 7.38416 20.0042C5.15337 17.1361 3.45833 14.0417 3.45833 11.2712ZM12.5 0.291992C6.02884 0.291992 0.875 5.33762 0.875 11.2712C0.875 14.959 3.05496 18.6458 5.34501 21.5902C7.32671 24.1381 9.55422 26.3286 10.9465 27.6977C11.1865 27.9338 11.4018 28.1455 11.5867 28.3303C11.8288 28.5725 12.1574 28.7087 12.5 28.7087C12.8425 28.7087 13.1711 28.5725 13.4133 28.3303C13.5982 28.1455 13.8135 27.9338 14.0535 27.6978C15.4456 26.3286 17.6733 24.1381 19.6551 21.5902C21.9451 18.6458 24.125 14.959 24.125 11.2712C24.125 5.33762 18.9711 0.291992 12.5 0.291992ZM12.5 15.1462C14.2834 15.1462 15.7292 13.7004 15.7292 11.917C15.7292 10.1336 14.2834 8.68783 12.5 8.68783C10.7166 8.68783 9.27083 10.1336 9.27083 11.917C9.27083 13.7004 10.7166 15.1462 12.5 15.1462Z" fill="#675DFE"/>
</svg>
