<svg width="26" height="25" viewBox="0 0 26 25" fill="none" xmlns="http://www.w3.org/2000/svg">
<path d="M20.8691 22.0477C20.8691 22.9419 21.5936 23.6668 22.4873 23.6668C23.381 23.6668 24.1055 22.9419 24.1055 22.0477C24.1055 21.1535 23.381 20.4287 22.4873 20.4287C21.5936 20.4287 20.8691 21.1535 20.8691 22.0477Z" fill="#675DFE" stroke="#675DFE" stroke-width="2" stroke-linecap="round" stroke-linejoin="round"/>
<path d="M11.1602 22.0477C11.1602 22.9419 11.8846 23.6668 12.7783 23.6668C13.6721 23.6668 14.3965 22.9419 14.3965 22.0477C14.3965 21.1535 13.6721 20.4287 12.7783 20.4287C11.8846 20.4287 11.1602 21.1535 11.1602 22.0477Z" fill="#675DFE" stroke="#675DFE" stroke-width="2" stroke-linecap="round" stroke-linejoin="round"/>
<path d="M1.45117 22.0477C1.45117 22.9419 2.17566 23.6668 3.06935 23.6668C3.96304 23.6668 4.68753 22.9419 4.68753 22.0477C4.68753 21.1535 3.96304 20.4287 3.06935 20.4287C2.17566 20.4287 1.45117 21.1535 1.45117 22.0477Z" fill="#675DFE" stroke="#675DFE" stroke-width="2" stroke-linecap="round" stroke-linejoin="round"/>
<path d="M20.8691 12.3329C20.8691 13.2271 21.5936 13.9519 22.4873 13.9519C23.381 13.9519 24.1055 13.2271 24.1055 12.3329C24.1055 11.4387 23.381 10.7139 22.4873 10.7139C21.5936 10.7139 20.8691 11.4387 20.8691 12.3329Z" fill="#675DFE" stroke="#675DFE" stroke-width="2" stroke-linecap="round" stroke-linejoin="round"/>
<path d="M11.1602 12.3329C11.1602 13.2271 11.8846 13.9519 12.7783 13.9519C13.6721 13.9519 14.3965 13.2271 14.3965 12.3329C14.3965 11.4387 13.6721 10.7139 12.7783 10.7139C11.8846 10.7139 11.1602 11.4387 11.1602 12.3329Z" fill="#675DFE" stroke="#675DFE" stroke-width="2" stroke-linecap="round" stroke-linejoin="round"/>
<path d="M1.45117 12.3329C1.45117 13.2271 2.17566 13.9519 3.06935 13.9519C3.96304 13.9519 4.68753 13.2271 4.68753 12.3329C4.68753 11.4387 3.96304 10.7139 3.06935 10.7139C2.17566 10.7139 1.45117 11.4387 1.45117 12.3329Z" fill="#675DFE" stroke="#675DFE" stroke-width="2" stroke-linecap="round" stroke-linejoin="round"/>
<path d="M20.8691 2.61902C20.8691 3.51318 21.5936 4.23805 22.4873 4.23805C23.381 4.23805 24.1055 3.51318 24.1055 2.61902C24.1055 1.72487 23.381 1 22.4873 1C21.5936 1 20.8691 1.72487 20.8691 2.61902Z" fill="#675DFE" stroke="#675DFE" stroke-width="2" stroke-linecap="round" stroke-linejoin="round"/>
<path d="M11.1602 2.61902C11.1602 3.51318 11.8846 4.23805 12.7783 4.23805C13.6721 4.23805 14.3965 3.51318 14.3965 2.61902C14.3965 1.72487 13.6721 1 12.7783 1C11.8846 1 11.1602 1.72487 11.1602 2.61902Z" fill="#675DFE" stroke="#675DFE" stroke-width="2" stroke-linecap="round" stroke-linejoin="round"/>
<path d="M1.45117 2.61902C1.45117 3.51318 2.17566 4.23805 3.06935 4.23805C3.96304 4.23805 4.68753 3.51318 4.68753 2.61902C4.68753 1.72487 3.96304 1 3.06935 1C2.17566 1 1.45117 1.72487 1.45117 2.61902Z" fill="#675DFE" stroke="#675DFE" stroke-width="2" stroke-linecap="round" stroke-linejoin="round"/>
</svg>
