<svg width="38" height="38" viewBox="0 0 38 38" fill="none" xmlns="http://www.w3.org/2000/svg">
<g clip-path="url(#clip0_0_18643)">
<path d="M31.9452 21.4206C31.7647 19.5402 31.11 18.1065 29.9994 17.159C29.1961 16.4737 28.3269 16.1939 27.6295 16.0901C26.8131 14.8572 25.619 14.1046 24.1891 13.9167C25.011 10.829 26.4463 5.78341 26.577 5.32463C26.9904 4.04815 26.8098 2.77913 26.0663 1.74708C25.2899 0.669631 23.9579 0.000146031 22.5903 1.46998e-08C20.8015 -0.000146002 19.3397 1.08753 18.7758 2.83856C18.7723 2.84951 18.7688 2.86046 18.7656 2.8717L16.4837 10.4666L14.3701 3.90842C13.8833 2.01269 12.3377 0.792138 10.4136 0.792138C9.08633 0.792138 7.82081 1.3927 7.02808 2.3989C6.25712 3.37765 6.00393 4.6293 6.31552 5.92344L8.92381 16.7705C8.34749 17.0337 7.83395 17.4047 7.41181 17.8667C6.60288 18.752 6.13914 19.9327 6.03342 21.3761C5.82666 24.1978 8.34121 28.1512 10.8282 31.6462C10.9039 31.7527 10.974 31.8511 11.034 31.9362L11.4391 35.6322C11.5609 36.9729 12.7015 38.0001 14.0513 38.0001H24.636C26.0007 38.0001 27.1428 36.9601 27.2506 35.6033L27.5753 32.2602C27.6038 32.2198 27.6343 32.181 27.6667 32.135C29.6718 29.2887 32.2968 25.0856 31.9452 21.4206ZM25.851 31.897L25.505 35.453C25.4743 35.9105 25.0944 36.2478 24.6362 36.2478H14.0515C13.5966 36.2478 13.2184 35.9156 13.1834 35.4621L12.7547 31.541C12.7429 31.3881 12.691 31.2462 12.6044 31.1197C11.7971 29.9438 7.57097 24.3689 7.78124 21.5019C7.95324 19.155 9.2744 18.4106 10.1807 18.1765C10.6423 18.0572 10.9244 17.5936 10.8128 17.13L8.0191 5.51284C7.579 3.6853 9.00792 2.54419 10.4135 2.54419C11.4002 2.54419 12.3756 3.10693 12.6843 4.38983L15.2765 12.4334C15.4683 13.0282 15.9836 13.324 16.4987 13.324C17.0227 13.324 17.5467 13.0179 17.7296 12.409L20.4436 3.3759C20.8106 2.23682 21.6944 1.7522 22.5902 1.7522C24.0315 1.75234 25.5037 3.00721 24.9015 4.81124C24.9015 4.81124 22.9675 11.5943 22.211 14.555C22.0701 15.106 22.4861 15.6405 23.0415 15.6405C23.0656 15.6405 23.0902 15.6394 23.1148 15.6373C23.2274 15.628 23.3448 15.6224 23.4659 15.6224C24.4069 15.6224 25.5701 15.9536 26.3349 17.3318C26.4845 17.6014 26.7577 17.7757 27.0655 17.7922C27.9875 17.8419 29.8896 18.3434 30.201 21.5879C30.5596 25.3248 26.7673 30.3452 26.0008 31.464C25.9127 31.5927 25.8615 31.7415 25.851 31.897Z" fill="#675DFE"/>
</g>
<defs>
<clipPath id="clip0_0_18643">
<rect width="38" height="38" fill="white"/>
</clipPath>
</defs>
</svg>
