<svg width="24" height="24" viewBox="0 0 24 24" fill="none" xmlns="http://www.w3.org/2000/svg">
<path d="M12 22C17.5228 22 22 17.5228 22 12C22 6.47715 17.5228 2 12 2C6.47715 2 2 6.47715 2 12C2 17.5228 6.47715 22 12 22Z" stroke="white" stroke-width="1.5" stroke-linecap="round"/>
<path d="M8 9.04995V8.94995M16 9.04995V8.94995" stroke="white" stroke-width="1.5" stroke-linecap="round"/>
<path d="M12 18C13.0609 18 14.0783 17.5786 14.8284 16.8284C15.5786 16.0783 16 15.0609 16 14H8C8 15.0609 8.42143 16.0783 9.17157 16.8284C9.92172 17.5786 10.9391 18 12 18Z" stroke="white" stroke-width="1.5" stroke-linecap="round" stroke-linejoin="round"/>
</svg>
