<svg width="10" height="11" viewBox="0 0 10 11" fill="none" xmlns="http://www.w3.org/2000/svg">
<path d="M5.00742 0C2.52443 0 0.509766 1.54458 0.509766 3.44782C0.509766 6.51255 5.00742 10.7266 5.00742 10.7266C5.00742 10.7266 9.50508 6.51255 9.50508 3.44782C9.50508 1.54458 7.49041 0 5.00742 0ZM5.00742 5.36328C4.6516 5.36328 4.30377 5.27341 4.00792 5.10503C3.71206 4.93665 3.48147 4.69733 3.3453 4.41733C3.20914 4.13732 3.17351 3.82921 3.24293 3.53196C3.31234 3.23471 3.48369 2.96167 3.73529 2.74737C3.9869 2.53306 4.30746 2.38712 4.65644 2.32799C5.00543 2.26887 5.36716 2.29921 5.69589 2.41519C6.02463 2.53117 6.3056 2.72758 6.50329 2.97958C6.70097 3.23157 6.80648 3.52784 6.80648 3.83091C6.80596 4.23719 6.61625 4.62669 6.27898 4.91397C5.9417 5.20125 5.4844 5.36284 5.00742 5.36328Z" fill="#505050"/>
</svg>
