<svg width="37" height="22" viewBox="0 0 37 22" fill="none" xmlns="http://www.w3.org/2000/svg">
<path d="M22.7654 11.8706C22.8898 11.744 32.0749 11.6165 35.399 10.7285C35.399 10.7285 31.4091 18.2579 27.8353 18.5539H10.5059" stroke="black" stroke-miterlimit="10"/>
<path d="M5.38281 18.5547H8.50965" stroke="black" stroke-miterlimit="10"/>
<path d="M1.23828 20.6699H4.06403C4.06403 20.6699 5.41426 20.2892 5.3834 17.8784C5.35254 15.4676 5.38434 14.9593 5.38434 14.9593H6.94775C6.94775 14.9593 7.92957 12.2525 5.64428 11.7871H2.73531C2.73531 11.7871 1.36358 12.1678 1.23922 13.3099V15.8054L2.27807 16.6087L2.31921 20.3739" stroke="black" stroke-miterlimit="10"/>
<path d="M1.23828 18.5547H2.29981" stroke="black" stroke-miterlimit="10"/>
<path d="M1.23828 14.1133H3.81437" stroke="black" stroke-miterlimit="10"/>
<path d="M2.27734 16.6094H4.19795" stroke="black" stroke-miterlimit="10"/>
<path d="M6.94727 14.959H26.2151" stroke="black" stroke-miterlimit="10"/>
<path d="M28.209 14.6418C28.3754 14.6627 32.1325 14.4771 34.0559 12.9629" stroke="black" stroke-miterlimit="10"/>
<path d="M7.15625 13.8029C7.43116 13.5631 8.01276 13.0558 9.21806 12.7598C9.21806 12.7598 10.4982 12.6656 12.2159 12.5352C15.3913 12.2934 20.0601 11.9242 20.896 11.7871" stroke="black" stroke-miterlimit="10"/>
<path d="M13.0414 8.48828L12.2148 12.5361" stroke="black" stroke-miterlimit="10"/>
<path d="M12.043 8.48711C12.043 8.48711 17.7777 8.19111 19.8563 7.76758" stroke="black" stroke-miterlimit="10"/>
<path d="M16.2101 12.2226L15.7012 8.24609" stroke="black" stroke-miterlimit="10"/>
<path d="M10.0059 1L20.357 11.8539" stroke="black" stroke-miterlimit="10"/>
<path d="M10.0059 4.17188L14.453 8.48716" stroke="black" stroke-miterlimit="10"/>
</svg>
