<svg width="12" height="15" viewBox="0 0 12 15" fill="none" xmlns="http://www.w3.org/2000/svg">
<path d="M6.19082 0C3.32211 0 0.988281 2.33538 0.988281 5.20567C0.988281 7.96856 5.70863 14.4237 5.90962 14.697L6.0972 14.9524C6.11914 14.9824 6.15407 15 6.19082 15C6.22814 15 6.26284 14.9824 6.28501 14.9524L6.47247 14.697C6.67357 14.4237 11.3938 7.96856 11.3938 5.20567C11.3938 2.33538 9.05961 0 6.19082 0ZM6.19082 3.34101C7.21869 3.34101 8.05451 4.1773 8.05451 5.20567C8.05451 6.2335 7.21865 7.07033 6.19082 7.07033C5.16356 7.07033 4.32713 6.2335 4.32713 5.20567C4.32713 4.1773 5.16352 3.34101 6.19082 3.34101Z" fill="black"/>
</svg>
