<svg width="36" height="17" viewBox="0 0 36 17" fill="none" xmlns="http://www.w3.org/2000/svg">
<path d="M1.83008 1L3.28613 3.22387H4.77807H8.69675L7.44826 1H1.83008Z" stroke="black" stroke-miterlimit="10"/>
<path d="M5.5776 5.34206L4.39648 3.22461" stroke="black" stroke-miterlimit="10"/>
<path d="M7.79674 5.16573L6.61719 3.22461" stroke="black" stroke-miterlimit="10"/>
<path d="M4.84703 13.6021H2.07227V7.84859C2.07227 7.84859 2.59195 5.55482 4.15256 5.55482L10.1515 5.16723L12.7172 2.94336H15.4217" stroke="black" stroke-miterlimit="10"/>
<path d="M16.3433 2.94141H20.3135L25.2387 6.59333H11.4008L10.1523 5.16528" stroke="black" stroke-miterlimit="10"/>
<path d="M25.2383 6.59375H28.7403C28.7403 6.59375 34.7049 7.17672 35.1903 10.4951V13.6021L34.2539 14.1676H30.0231" stroke="black" stroke-miterlimit="10"/>
<path d="M10.8125 13.8145H21.1468" stroke="black" stroke-miterlimit="10"/>
<path d="M22.709 13.8145H24.5483" stroke="black" stroke-miterlimit="10"/>
<path d="M7.79536 13.6021C8.48488 13.6021 9.04385 13.0332 9.04385 12.3313C9.04385 11.6295 8.48488 11.0605 7.79536 11.0605C7.10584 11.0605 6.54688 11.6295 6.54688 12.3313C6.54688 13.0332 7.10584 13.6021 7.79536 13.6021Z" stroke="black" stroke-miterlimit="10"/>
<path d="M27.4184 13.6021C28.1079 13.6021 28.6669 13.0332 28.6669 12.3313C28.6669 11.6295 28.1079 11.0605 27.4184 11.0605C26.7289 11.0605 26.1699 11.6295 26.1699 12.3313C26.1699 13.0332 26.7289 13.6021 27.4184 13.6021Z" stroke="black" stroke-miterlimit="10"/>
<path d="M27.3802 15.7302C29.1186 15.7302 30.5279 14.2957 30.5279 12.5262C30.5279 10.7567 29.1186 9.32227 27.3802 9.32227C25.6417 9.32227 24.2324 10.7567 24.2324 12.5262C24.2324 14.2957 25.6417 15.7302 27.3802 15.7302Z" stroke="black" stroke-miterlimit="10"/>
<path d="M7.79423 15.7302C9.53268 15.7302 10.942 14.2957 10.942 12.5262C10.942 10.7567 9.53268 9.32227 7.79423 9.32227C6.05577 9.32227 4.64648 10.7567 4.64648 12.5262C4.64648 14.2957 6.05577 15.7302 7.79423 15.7302Z" stroke="black" stroke-miterlimit="10"/>
<path d="M11.7129 8.87305H13.5522" stroke="black" stroke-miterlimit="10"/>
<path d="M20.5918 8.87305H21.3558" stroke="black" stroke-miterlimit="10"/>
<path d="M22.291 8.87305H23.1597" stroke="black" stroke-miterlimit="10"/>
</svg>
