<svg width="26" height="26" viewBox="0 0 26 26" fill="none" xmlns="http://www.w3.org/2000/svg">
<circle cx="13" cy="13" r="13" fill="white"/>
<path d="M13 21.3333C12.8613 21.3335 12.7243 21.3021 12.5994 21.2417C12.2795 21.0858 4.75 17.3651 4.75 11.25C4.75001 10.3436 5.01879 9.45748 5.52236 8.70379C6.02593 7.95011 6.74167 7.36266 7.57908 7.01573C8.41649 6.66879 9.33797 6.57795 10.227 6.75469C11.116 6.93143 11.9327 7.36781 12.5738 8.00866L13 8.43491L13.4263 8.00866C14.0673 7.36781 14.884 6.93143 15.773 6.75469C16.662 6.57795 17.5835 6.66879 18.4209 7.01573C19.2583 7.36266 19.9741 7.95011 20.4776 8.70379C20.9812 9.45748 21.25 10.3436 21.25 11.25C21.25 17.3422 13.7223 21.084 13.4015 21.2417C13.2764 21.3023 13.1391 21.3336 13 21.3333Z" fill="#E10000"/>
</svg>
