<svg width="26" height="21" viewBox="0 0 26 21" fill="none" xmlns="http://www.w3.org/2000/svg">
<path d="M4.54297 1.00098C4.55254 1.51539 4.56211 2.03077 4.57168 2.54519C6.39126 2.53544 8.21084 2.5257 10.0314 2.51596V1H4.54297V1.00098Z" stroke="#000000" stroke-miterlimit="10"/>
<path d="M5.47852 4.46405V2.47266" stroke="#000000" stroke-miterlimit="10"/>
<path d="M9.15039 2.52148V4.46514" stroke="#000000" stroke-miterlimit="10"/>
<path d="M5.06826 9.45892H1.11133L3.7914 4.46484H10.9242" stroke="#000000" stroke-miterlimit="10"/>
<path d="M13.0224 5.02813C12.8951 5.08561 6.30113 10.5853 6.30113 10.5853C6.30113 10.5853 5.52103 10.9176 5.209 10.5853C4.89696 10.2531 5.209 9.45908 5.209 9.45908L12.8951 2.87695L14.9817 4.54879L20.9496 9.3295C20.9496 9.3295 21.5029 9.95011 20.8788 10.5853C20.8788 10.5853 20.3256 11.2264 19.6594 10.7324L13.0224 5.02813Z" stroke="#000000" stroke-miterlimit="10"/>
<path d="M21.0496 9.28591H24.7079L22.113 4.63867H15.207" stroke="#000000" stroke-miterlimit="10"/>
<path d="M7.71875 9.45898V19.8797" stroke="#000000" stroke-miterlimit="10"/>
<path d="M18.4766 9.71484V19.7917" stroke="#000000" stroke-miterlimit="10"/>
<path d="M10.5625 19.879V14.9434H15.646V19.879" stroke="#000000" stroke-miterlimit="10"/>
<path d="M23.1543 9.28516L23.2614 19.8793" stroke="#000000" stroke-miterlimit="10"/>
<path d="M3.01172 9.45898V19.793" stroke="#000000" stroke-miterlimit="10"/>
<path d="M1.28906 19.793L24.9847 19.8904" stroke="#000000" stroke-miterlimit="10"/>
<path d="M18.4766 13.2324H21.708V14.7542H18.4766" stroke="#000000" stroke-miterlimit="10"/>
<path d="M7.71861 13.2324H4.62695V14.7542H7.71861" stroke="#000000" stroke-miterlimit="10"/>
<path d="M13.1606 10.4724C14.0789 10.4724 14.8232 9.89095 14.8232 9.1737C14.8232 8.45645 14.0789 7.875 13.1606 7.875C12.2424 7.875 11.498 8.45645 11.498 9.1737C11.498 9.89095 12.2424 10.4724 13.1606 10.4724Z" stroke="#000000" stroke-miterlimit="10"/>
</svg>
