<svg width="12" height="14" viewBox="0 0 12 14" fill="none" xmlns="http://www.w3.org/2000/svg">
<path d="M5.99969 0C2.70973 0 0.0332031 2.3429 0.0332031 5.22275C0.0332031 9.51354 5.40581 13.7031 5.6346 13.8794C5.7389 13.9598 5.86927 14 5.99969 14C6.13012 14 6.26049 13.9598 6.36484 13.8794C6.59353 13.7032 11.9662 9.51359 11.9662 5.22275C11.9662 2.3429 9.28966 0 5.99969 0ZM5.99969 12.854C4.81187 11.8469 1.13812 8.46882 1.13812 5.22275C1.13812 2.87603 3.31902 0.966802 5.99969 0.966802C8.68037 0.966802 10.8613 2.87603 10.8613 5.22275C10.8613 8.46878 7.18752 11.8468 5.99969 12.854Z" fill="black"/>
<path d="M6.00052 2.79004C4.47739 2.79004 3.23828 3.88147 3.23828 5.22302C3.23828 6.56462 4.47739 7.65601 6.00052 7.65601C7.52364 7.65601 8.76275 6.56462 8.76275 5.22302C8.76275 3.88147 7.52364 2.79004 6.00052 2.79004ZM6.00052 6.6892C5.08663 6.6892 4.34314 6.03149 4.34314 5.22302C4.34314 4.4146 5.08663 3.75684 6.00052 3.75684C6.9144 3.75684 7.65789 4.41456 7.65789 5.22302C7.65789 6.03149 6.9144 6.6892 6.00052 6.6892Z" fill="black"/>
</svg>
